<?xml version="1.0" encoding="UTF-8" standalone="no"?>
<svg
   version="1.0"
   width="1024"
   height="1024"
   viewBox="0 0 1024 1024"
   preserveAspectRatio="xMidYMid"
   id="svg164"
   sodipodi:docname="FreeSample-Vectorizer-io-unnamed.svg"
   xml:space="preserve"
   inkscape:export-filename="Humbank-Background.svg"
   inkscape:export-xdpi="96"
   inkscape:export-ydpi="96"
   xmlns:inkscape="http://www.inkscape.org/namespaces/inkscape"
   xmlns:sodipodi="http://sodipodi.sourceforge.net/DTD/sodipodi-0.dtd"
   xmlns:xlink="http://www.w3.org/1999/xlink"
   xmlns="http://www.w3.org/2000/svg"
   xmlns:svg="http://www.w3.org/2000/svg"><defs
     id="defs168"><linearGradient
       inkscape:collect="always"
       id="linearGradient2556"><stop
         style="stop-color:#ed2aff;stop-opacity:1;"
         offset="0"
         id="stop2552" /><stop
         style="stop-color:#1f92ff;stop-opacity:1;"
         offset="1"
         id="stop2554" /></linearGradient><linearGradient
       inkscape:collect="always"
       xlink:href="#linearGradient2556"
       id="linearGradient2378"
       x1="0"
       y1="0"
       x2="1024"
       y2="1024"
       gradientUnits="userSpaceOnUse" /><linearGradient
       inkscape:collect="always"
       xlink:href="#linearGradient2556"
       id="linearGradient2538"
       x1="1024"
       y1="1024"
       x2="0"
       y2="0"
       gradientUnits="userSpaceOnUse" /></defs><sodipodi:namedview
     id="namedview166"
     pagecolor="#ffffff"
     bordercolor="#000000"
     borderopacity="0.25"
     inkscape:showpageshadow="2"
     inkscape:pageopacity="0.0"
     inkscape:pagecheckerboard="0"
     inkscape:deskcolor="#d1d1d1"
     showgrid="false"
     inkscape:lockguides="false" /><g
     inkscape:groupmode="layer"
     id="layer4"
     inkscape:label="Layer 3"
     style="display:none"><rect
       style="fill:url(#linearGradient2378);fill-opacity:1;stroke:none;stroke-width:7.337;stroke-dasharray:none;stroke-opacity:1"
       id="rect2347"
       width="1024"
       height="1024"
       x="0"
       y="0" /></g><g
     inkscape:groupmode="layer"
     id="layer5"
     inkscape:label="Layer 4"
     style="display:none"><circle
       style="display:inline;fill:url(#linearGradient2538);fill-opacity:1;stroke:#000000;stroke-width:5.037;stroke-dasharray:none;stroke-opacity:1"
       id="path2499"
       cx="512"
       cy="512"
       r="512" /></g><g
     inkscape:groupmode="layer"
     id="layer2"
     inkscape:label="Layer 2"><path
       id="path1958-7"
       style="display:inline;fill:#010101;fill-opacity:1;stroke:#000000;stroke-width:5.85073;stroke-dasharray:none;stroke-opacity:1"
       d="m 344.37674,631.08808 c -2.67742,-1.51249 -3.18152,-2.82337 -3.33997,-8.68546 l -0.13772,-5.09459 -2.64488,-0.25643 c -10.27338,-0.99611 -23.70709,-7.01683 -35.20625,-15.77875 -3.6046,-2.74658 -4.40731,-4.06288 -4.40731,-7.22726 0,-2.26678 0.13577,-2.76682 0.99379,-3.66048 1.47693,-1.53825 3.7066,-2.50588 5.77422,-2.50588 2.04403,0 2.8488,0.33288 5.15738,2.13319 5.79489,4.5191 14.15471,9.00714 21.49052,11.53737 3.47894,1.19995 8.74255,2.32524 9.51978,2.03522 0.39576,-0.14766 0.59323,-0.76933 0.59585,-1.87569 0.005,-2.11568 1.71855,-19.37736 2.77346,-27.93794 1.25783,-10.20726 1.37397,-11.78876 0.86565,-11.78876 -0.24609,0 -1.39006,-0.58548 -2.54214,-1.30103 -1.15204,-0.71555 -4.64479,-2.5566 -7.76166,-4.09121 -6.62181,-3.26029 -10.28141,-5.90484 -13.12155,-9.48206 -2.59246,-3.26526 -3.69492,-6.0829 -3.96614,-10.13647 -0.35318,-5.27885 0.74858,-9.06777 4.07892,-14.0274 4.37641,-6.51749 11.72748,-11.26667 20.69413,-13.36958 3.75434,-0.88048 4.97066,-0.9966 8.98851,-0.85802 l 4.64663,0.16026 1.45675,-5.81801 c 1.68006,-6.70983 2.04041,-7.51426 4.02597,-8.9868 1.20162,-0.8912 1.85815,-1.0829 3.70833,-1.0829 1.85302,0 2.50624,0.19137 3.71612,1.08865 3.33758,2.47527 3.61217,4.27953 1.73332,11.38902 -0.7462,2.82364 -1.24591,5.20047 -1.11047,5.28186 0.13543,0.0814 3.01577,0.77238 6.40079,1.53558 8.30464,1.87236 19.07353,4.75377 21.59451,5.77795 1.81904,0.73903 2.87308,2.67325 2.47898,4.54909 -0.15011,0.71455 -0.93725,2.42972 -1.74916,3.81154 -1.1532,1.9626 -1.86607,2.70809 -3.25783,3.40688 -2.08915,1.04894 -3.42736,0.97498 -7.94307,-0.43893 -6.29848,-1.97214 -8.75832,-2.65281 -15.20054,-4.20626 -3.6597,-0.88251 -6.76557,-1.49609 -6.90189,-1.36352 -0.59286,0.57647 -6.12095,28.44872 -6.12095,30.86146 0,0.20353 0.84778,0.7234 1.88396,1.15529 3.29059,1.3715 8.29032,4.89408 11.02981,7.77117 6.39556,6.7167 9.6719,15.24001 9.25506,24.07677 -0.14443,3.06154 -0.4153,4.42773 -1.30279,6.5708 -1.91996,4.63625 -4.17,7.92246 -7.94688,11.60661 -5.33216,5.20123 -10.63913,8.01235 -18.15886,9.61875 l -1.06583,0.2277 -0.12671,6.15672 c -0.1132,5.50362 -0.21367,6.26976 -0.9463,7.22259 -2.11811,2.75468 -5.19031,3.53169 -7.90354,1.99896 z m 16.27585,-31.17399 c 5.08498,-2.56717 9.60729,-7.76919 10.30815,-11.85744 0.56417,-3.29089 -1.04103,-9.22602 -3.45271,-12.76628 -2.52767,-3.7105 -7.61965,-7.93639 -8.01762,-6.65387 -0.58938,1.89943 -3.40921,29.09021 -3.40921,32.87411 0,0.48989 1.42333,-0.007 4.57139,-1.59652 z m -9.55085,-57.06405 c 1.2664,-6.95765 2.40519,-12.90919 3.20079,-16.72784 0.32237,-1.54727 0.58613,-3.35254 0.58613,-4.01174 v -1.1985 l -2.88197,0.26355 c -7.59412,0.69449 -13.9836,3.7373 -17.71017,8.43401 -3.2765,4.12947 -3.62992,5.98834 -1.68224,8.84751 1.42593,2.09322 3.27583,3.40568 8.75895,6.21422 2.29565,1.17587 5.0683,2.65986 6.16145,3.29775 1.09317,0.6379 2.10552,1.05159 2.24968,0.91932 0.14418,-0.13229 0.737,-2.84951 1.31738,-6.03828 z m 224.56757,96.96416 c -2.79159,-1.577 -3.3172,-2.94379 -3.48242,-9.05592 l -0.14359,-5.31185 -2.75768,-0.26739 c -10.71155,-1.03858 -24.71823,-7.31609 -36.70784,-16.45173 -3.75833,-2.86371 -4.59527,-4.23616 -4.59527,-7.5355 0,-2.36347 0.14154,-2.88484 1.03616,-3.81661 1.53993,-1.60387 3.8647,-2.61277 6.02051,-2.61277 2.13118,0 2.97029,0.34708 5.37735,2.2242 6.04202,4.71182 14.75841,9.39128 22.4071,12.02943 3.62732,1.25113 9.11544,2.42442 9.92583,2.12205 0.41263,-0.15398 0.61853,-0.80214 0.62123,-1.9557 0.006,-2.20593 1.79188,-20.20382 2.89177,-29.12953 1.31148,-10.64264 1.43254,-12.29156 0.90253,-12.29156 -0.25655,0 -1.44931,-0.61043 -2.65051,-1.35651 -1.2012,-0.74608 -4.84293,-2.66565 -8.09271,-4.2657 -6.90423,-3.39935 -10.71993,-6.15671 -13.68121,-9.8865 -2.70303,-3.40453 -3.85252,-6.34234 -4.13529,-10.56879 -0.36827,-5.50401 0.78049,-9.45455 4.25287,-14.62571 4.56307,-6.79545 12.22767,-11.7472 21.57677,-13.93978 3.91446,-0.91804 5.18264,-1.0391 9.37184,-0.89463 l 4.84486,0.16711 1.51887,-6.06616 c 1.7517,-6.99602 2.12744,-7.83475 4.19767,-9.3701 1.25291,-0.92921 1.93742,-1.12909 3.86651,-1.12909 1.93206,0 2.61314,0.19953 3.87462,1.1351 3.47992,2.58082 3.76622,4.46205 1.80726,11.87478 -0.77802,2.94404 -1.29909,5.42225 -1.15784,5.50711 0.1412,0.0849 3.14441,0.80535 6.67379,1.60108 8.65882,1.95223 19.88702,4.95653 22.51553,6.0244 1.89662,0.77053 2.99561,2.78725 2.5847,4.74308 -0.15652,0.74505 -0.97722,2.5334 -1.82377,3.97412 -1.20238,2.04634 -1.94565,2.82362 -3.39677,3.5522 -2.17826,1.09366 -3.57355,1.01656 -8.28181,-0.45766 -6.56716,-2.05624 -9.1319,-2.76597 -15.8489,-4.38565 -3.8158,-0.92015 -7.0541,-1.5599 -7.19624,-1.42169 -0.61816,0.60104 -6.38203,29.66209 -6.38203,32.17773 0,0.21223 0.88393,0.75427 1.96434,1.20458 3.43093,1.42998 8.64387,5.1028 11.50023,8.10259 6.66832,7.00319 10.0844,15.89004 9.64978,25.10371 -0.15057,3.1921 -0.43301,4.61655 -1.35835,6.85103 -2.00186,4.83401 -4.34786,8.26037 -8.28583,12.10166 -5.5596,5.42306 -11.09291,8.35406 -18.93335,10.029 l -1.11127,0.23738 -0.13214,6.41931 c -0.11814,5.73835 -0.22277,6.5372 -0.98667,7.53066 -2.20843,2.87215 -5.41166,3.68231 -8.24063,2.08422 z m 16.97004,-32.5036 c 5.30186,-2.67668 10.01705,-8.10057 10.7478,-12.36318 0.58824,-3.43124 -1.08544,-9.61953 -3.59995,-13.31076 -2.63548,-3.86876 -7.94464,-8.27487 -8.35959,-6.93767 -0.61452,1.98043 -3.55461,30.33096 -3.55461,34.27623 0,0.51077 1.48402,-0.008 4.76635,-1.66462 z m -9.9582,-59.49787 c 1.32042,-7.25441 2.50777,-13.4598 3.33732,-17.4413 0.33611,-1.61326 0.61113,-3.49555 0.61113,-4.18284 v -1.24964 l -3.00488,0.27479 c -7.91804,0.72411 -14.58004,3.8967 -18.46556,8.79373 -3.41623,4.3056 -3.78475,6.24376 -1.75397,9.22484 1.48676,2.18253 3.41557,3.55097 9.13251,6.4793 2.39357,1.22599 5.28446,2.7733 6.42425,3.4384 1.13978,0.6651 2.19534,1.09643 2.34563,0.95851 0.15032,-0.13793 0.76843,-2.97104 1.37357,-6.29579 z m -84.92834,301.71119 c -3.56332,-1.18787 -9.57682,-3.57305 -13.3633,-5.3004 -9.27315,-4.23029 -21.73996,-4.95432 -41.66066,-2.41946 -8.28552,1.05428 -19.30522,2.45829 -24.48824,3.12 -5.18301,0.6617 -12.32073,2.18988 -15.8616,3.39595 -8.14485,2.77426 -9.07625,2.74763 -10.75782,-0.30749 -3.07634,-5.58918 6.93095,-9.10026 35.45412,-12.43919 10.68997,-1.25137 23.01448,-2.733 27.3878,-3.29251 11.53519,-1.47578 24.34848,0.37037 35.04399,5.04915 17.11502,7.48704 25.02794,7.95301 39.74088,2.34026 9.50807,-3.62718 12.4337,-3.30585 11.87369,1.30408 -0.31782,2.61622 -1.60035,3.57056 -8.61909,6.41346 -10.96275,4.44041 -25.21021,5.31623 -34.74977,2.13615 z m 63.77747,-14.8832 c -1.56343,-1.52019 -2.52884,-5.42164 -3.60717,-14.57754 -1.6613,-14.10568 -4.23665,-20.57966 -9.52948,-23.95556 -4.36144,-2.78184 -4.57989,-7.78969 -0.36526,-8.37315 3.04224,-0.42115 11.37709,6.44919 14.1506,11.66422 1.9597,3.68481 6.45628,32.08154 5.47415,34.57014 -0.99601,2.52376 -3.89152,2.84149 -6.12284,0.67189 z M 436.8267,820.60548 c -3.68146,-1.37601 -8.81239,-4.74611 -12.7797,-8.39399 -5.90212,-5.42687 -6.48222,-6.36099 -5.2926,-8.5223 1.92796,-3.50278 4.17759,-3.02079 9.91919,2.12522 6.55995,5.8795 14.05423,9.13517 21.10095,9.16672 4.32824,0.0194 7.99998,-1.13763 15.98547,-5.03726 11.734,-5.73015 22.1737,-9.00963 26.97267,-8.47309 2.57916,0.28836 3.25319,0.95342 3.25319,3.2099 0,2.50583 -0.84523,3.07147 -7.06775,4.72979 -3.88726,1.03595 -12.58661,4.52277 -19.33189,7.74849 -10.79268,5.16127 -13.12464,5.85778 -19.43631,5.80525 -4.21309,-0.0351 -9.70997,-1.00821 -13.32322,-2.35873 z m 1.03106,-19.88523 c -2.16812,-0.95234 -5.52179,-3.02406 -7.45261,-4.6038 -3.95574,-3.23645 -6.14782,-3.49341 -10.37823,-1.21648 -3.56606,1.91934 -7.08711,0.47564 -7.08711,-2.90585 0,-1.65327 1.56558,-2.98823 5.47782,-4.67093 6.57492,-2.82795 11.5686,-1.85737 18.66781,3.62832 2.53546,1.95918 5.85841,3.43806 7.72516,3.43806 1.80171,0 9.19319,-1.80396 16.4255,-4.00881 15.46089,-4.71341 21.38294,-4.95634 32.45889,-1.33154 6.12022,2.00297 8.26916,3.25427 8.53201,4.96808 0.66781,4.35426 -2.3037,5.16241 -9.78251,2.6605 -9.3942,-3.14267 -15.52097,-2.8792 -28.73064,1.23551 -14.0392,4.3731 -20.65541,5.09136 -25.85609,2.80694 z m 77.56443,-9.60504 c -3.56333,-1.17358 -13.14143,-5.51485 -21.28467,-9.6473 -8.14323,-4.13244 -16.67264,-7.85405 -18.95425,-8.27024 -7.1995,-1.31327 -13.90518,1.29335 -20.0567,7.79641 -7.22514,7.63802 -10.9547,7.85464 -19.98035,1.16049 -8.58338,-6.36611 -13.01737,-8.38173 -18.43827,-8.38173 -7.63106,0 -11.76969,2.05042 -15.01842,7.44062 -3.43783,5.70393 -8.11776,8.03894 -13.97181,6.97109 -5.38214,-0.98176 -11.59074,-6.62775 -11.08672,-10.08205 0.56477,-3.87055 5.19018,-4.10103 8.17816,-0.4075 3.67502,4.54279 7.55399,3.90969 10.50488,-1.71453 3.09138,-5.89199 11.7638,-10.19776 20.57066,-10.21314 6.94567,-0.0122 17.8429,4.56415 24.59516,10.3287 l 4.40553,3.7611 5.53339,-5.64094 c 6.19826,-6.31874 12.04637,-8.62459 21.87386,-8.62459 7.29042,0 13.24958,2.17408 32.34311,11.79972 l 14.40612,7.26257 h 10.26423 c 9.74537,0 10.28325,0.13018 10.6404,2.57524 0.45129,3.08948 -2.82361,4.58324 -11.93308,5.44297 -4.20234,0.39661 -8.13707,-0.09 -12.59123,-1.55689 z m -187.9811,-22.32863 c -0.61704,-1.56352 8.33056,-28.44377 11.41674,-34.29801 0.7312,-1.38703 5.10933,-7.36052 9.72921,-13.27444 4.61985,-5.91393 9.72704,-13.12978 11.3493,-16.03523 3.13504,-5.61482 6.37592,-6.854 8.67139,-3.31559 1.86019,2.86743 -3.0572,11.88068 -13.16902,24.13791 -4.56896,5.53835 -9.12509,12.23878 -10.12473,14.88985 -0.99964,2.65107 -3.81908,10.23201 -6.26543,16.84654 -4.07468,11.01725 -4.72009,12.05689 -7.69152,12.38947 -2.05205,0.22969 -3.49061,-0.26277 -3.91594,-1.3405 z m 117.27121,-3.83782 c -4.24479,-2.84467 -5.77769,-5.10078 -5.81995,-8.56567 -0.0616,-5.05632 4.34959,-5.53327 8.24575,-0.89153 2.26428,2.69755 3.74821,3.54255 5.24224,2.98509 1.71455,-0.63973 1.98591,-1.76962 1.53086,-6.37432 -0.63067,-6.38205 0.55132,-9.25457 3.80812,-9.25457 3.18974,0 4.69474,3.43582 4.69474,10.71786 0,8.34717 -3.90657,13.33498 -10.44424,13.33498 -2.38976,0 -5.65565,-0.87832 -7.25752,-1.95184 z m -22.09656,-23.06858 c -11.80318,-4.06486 -23.50286,-13.51667 -28.48483,-23.01201 -4.14596,-7.90194 -4.03367,-11.69817 1.13715,-38.44327 5.61395,-29.03717 6.76331,-33.77159 12.92966,-53.25986 8.60172,-27.18501 11.79216,-41.51455 11.82787,-53.12355 0.0218,-7.09756 1.12503,-9.04944 4.82701,-8.54048 2.47358,0.34008 2.85725,1.07519 3.19062,6.11342 0.76139,11.50738 -2.78542,28.72055 -12.15435,58.98674 -7.2128,23.30086 -8.20743,27.40663 -12.96621,53.52301 -5.12853,28.14561 -4.95057,29.50973 5.10768,39.1517 10.71076,10.26746 23.55527,14.91412 35.24189,12.74918 7.51704,-1.39252 8.8976,-1.95714 19.14183,-7.82871 13.38381,-7.67105 23.55996,-12.44082 31.07281,-14.56445 7.68168,-2.17135 14.45252,-7.33586 16.80998,-12.82193 3.32463,-7.73687 1.16065,-20.70022 -3.76213,-22.53701 -3.34281,-1.24728 -11.07815,-0.76648 -15.30659,0.95141 -2.25122,0.9146 -5.87049,3.54935 -8.04283,5.85499 -3.05936,3.24709 -4.51801,4.01671 -6.47069,3.4141 -3.89667,-1.20255 -3.11328,-5.33381 1.89638,-10.00065 6.96801,-6.49117 11.5209,-8.28864 21.11263,-8.33523 6.73945,-0.0328 9.10882,0.43692 11.7068,2.32048 6.30207,4.56908 8.04418,8.04467 8.50791,16.97374 0.81304,15.6553 -7.25192,26.75706 -22.84409,31.44582 -4.49686,1.35226 -13.47693,5.30265 -19.9557,8.77864 -24.50943,13.14983 -26.02065,13.71294 -37.69467,14.04589 -7.97843,0.22755 -12.14226,-0.22821 -16.82813,-1.84197 z m 39.62402,-89.80326 c -1.77167,-3.18137 -1.84567,-9.91306 -0.56688,-51.57191 0.9598,-31.2672 1.13283,-33.0226 3.3698,-34.18667 1.81288,-0.94339 2.77877,-0.81803 4.17774,0.54225 1.61673,1.57201 1.68511,5.95383 0.61309,39.28898 -0.7486,23.27802 -0.79134,38.98195 -0.11261,41.3721 1.83368,6.45734 -4.33139,10.21123 -7.48114,4.55525 z m 294.09149,-20.78283 c -2.183,-2.12262 -2.96146,-4.09227 -2.96146,-7.493 0,-5.10682 2.45314,-7.97546 17.998,-21.04645 7.68224,-6.45963 10.41449,-10.18562 5.65161,-7.70713 -1.246,0.6484 -4.90395,1.72911 -8.12878,2.40157 -6.68053,1.3931 -8.93519,3.35499 -11.20246,9.74788 -1.75679,4.9535 -5.21825,6.44615 -7.83611,3.37909 -3.81958,-4.47502 4.41566,-17.43919 12.58564,-19.81272 2.46324,-0.71562 6.47564,-1.88072 8.91644,-2.58914 6.3652,-1.84742 8.16541,-5.85689 7.76447,-17.29317 -0.24604,-7.01808 0.0787,-9.39253 1.39523,-10.20144 4.32769,-2.65908 6.94426,2.42698 7.09864,13.79828 l 0.11662,8.5903 2.48243,-5.15417 c 1.36533,-2.8348 3.08226,-7.98899 3.8154,-11.45374 1.17636,-5.55935 1.69865,-6.34168 4.44498,-6.65812 8.67959,-1.00006 3.27746,18.33904 -10.02573,35.89114 -2.87559,3.79403 -10.08887,11.23229 -16.02951,16.52946 -5.94064,5.29716 -10.80117,10.4555 -10.80117,11.46296 0,1.00748 1.63112,2.4304 3.62472,3.1621 2.82409,1.03648 3.53961,1.91416 3.23939,3.97357 -0.31237,2.14271 -1.21868,2.71037 -4.78611,2.99777 -3.42885,0.27621 -5.0548,-0.28144 -7.36224,-2.52504 z M 521.14896,620.2726 c -1.06147,-0.60275 -2.26926,-2.41046 -2.68399,-4.01715 -0.41472,-1.60667 -3.42968,-7.41171 -6.69991,-12.90007 -5.9226,-9.93979 -5.94388,-10.01181 -5.43642,-18.39989 0.57542,-9.51124 2.38247,-12.03392 6.71291,-9.37134 1.25431,0.77121 1.74914,3.25221 1.76694,8.8591 0.023,7.22511 0.42852,8.44657 5.61255,16.9025 6.14007,10.01535 7.87328,15.71424 5.59206,18.38692 -1.68335,1.97219 -2.2342,2.03333 -4.86414,0.53993 z m 227.85917,-67.14815 c -2.68624,-0.57335 -4.58795,-4.1015 -3.30159,-6.12529 0.40399,-0.6356 5.38931,-1.15563 11.07849,-1.15563 14.46377,0 20.88069,-3.22494 35.34557,-17.76351 10.4601,-10.51339 13.82193,-12.4574 16.32333,-9.43911 2.04737,2.47044 -0.27177,5.68216 -12.24577,16.95885 -14.88278,14.01609 -21.61105,17.43474 -35.05415,17.81111 -5.25314,0.14706 -10.71878,0.0182 -12.14588,-0.28642 z M 408.13084,531.25627 c -3.80105,-5.71127 -11.78567,-10.61019 -28.44982,-17.45524 -17.34105,-7.12312 -29.93229,-9.73851 -42.38752,-8.80461 -9.51126,0.71317 -15.73767,2.59804 -38.02668,11.51152 -15.75154,6.2991 -29.20814,8.87121 -32.03444,6.12309 -1.98712,-1.93215 -1.38437,-5.20206 1.08632,-5.89314 0.82453,-0.23063 6.02414,-1.44723 11.55468,-2.70357 5.53055,-1.25634 16.94464,-5.1447 25.36468,-8.64082 17.93798,-7.44809 27.43894,-9.35198 42.35215,-8.48685 24.16809,1.402 63.17655,19.18575 68.36564,31.16752 3.26968,7.54982 -3.17414,10.17026 -7.82501,3.1821 z m 61.94329,1.9984 c -0.40941,-1.25427 -0.47231,-2.70856 -0.13977,-3.23172 1.27443,-2.00504 28.48834,-16.74784 36.49497,-19.77072 13.11988,-4.95336 33.24992,-8.38401 49.04344,-8.35818 12.58171,0.0206 14.6704,0.36425 29.32621,4.82548 20.2125,6.15268 24.14315,7.88822 35.51828,15.68275 9.52397,6.52607 9.9121,6.98256 8.65188,10.17578 -1.20729,3.05911 -5.62682,2.0314 -12.32427,-2.86585 -9.18849,-6.71875 -14.98311,-9.33282 -32.9011,-14.84235 -14.48887,-4.45514 -17.00189,-4.89108 -28.271,-4.90428 -13.25687,-0.0156 -30.37026,2.55251 -41.81752,6.27515 -3.88726,1.26414 -14.00114,6.12254 -22.47528,10.79644 -16.1625,8.91439 -19.8691,10.00632 -21.10584,6.2175 z m 249.42935,-19.09479 c -3.71743,-1.45851 -1.27072,-5.99714 7.751,-14.378 11.37044,-10.56277 15.63284,-12.18035 35.53897,-13.48712 14.77278,-0.96978 21.15207,-2.48638 29.38648,-6.98637 5.55073,-3.03339 8.78136,-2.56031 9.25101,1.35465 0.30597,2.55053 -0.57068,3.42614 -6.47877,6.47114 -9.34224,4.81496 -15.0789,6.1162 -31.60543,7.16908 -8.24391,0.5252 -16.05058,1.66634 -18.66453,2.72831 -2.47134,1.00402 -8.32629,5.43931 -13.01103,9.8562 -8.38978,7.91006 -9.24261,8.41977 -12.1677,7.27211 z m -451.42635,-6.65566 c -1.15161,-1.34922 -0.83822,-3.93134 1.56389,-12.88544 4.97707,-18.55261 6.76564,-30.83212 7.48095,-51.36095 0.76854,-22.05674 -0.58368,-38.07492 -4.99013,-59.11214 -4.79171,-22.87661 -3.52531,-40.97513 4.22944,-60.44403 1.86863,-4.69134 3.18568,-8.7357 2.92677,-8.98745 -0.96857,-0.94176 -23.53581,10.23133 -30.68726,15.19334 -18.63519,12.92994 -34.75982,44.54567 -34.72197,68.07968 0.009,4.78138 0.80015,11.52822 1.76103,14.99297 4.10851,14.81449 3.37325,34.49241 -1.91027,51.12531 -2.03356,6.40176 -2.67243,7.28874 -5.24986,7.28874 -1.614,0 -3.24124,-0.77714 -3.6161,-1.72699 -0.37486,-0.94984 0.55253,-6.49059 2.06086,-12.31276 3.5202,-13.58814 3.75231,-31.33096 0.54302,-41.51086 -1.2089,-3.83461 -2.22638,-10.76415 -2.30193,-15.67721 l -0.13542,-8.80497 -2.76929,2.5054 c -1.52311,1.378 -5.45454,5.50938 -8.73653,9.18086 -7.52516,8.41827 -7.6671,11.03827 -1.05907,19.54845 5.42173,6.98238 6.16987,10.45701 2.49571,11.59089 -3.08727,0.95276 -4.75845,-0.45433 -10.54251,-8.87643 -4.925,-7.17123 -5.95172,-12.45306 -3.59321,-18.48483 1.57385,-4.02502 22.08805,-25.34206 24.39477,-25.34948 1.32195,-0.005 2.38844,-1.92207 3.50318,-6.29955 2.24838,-8.82907 12.15896,-27.73402 19.43081,-37.06524 8.15122,-10.4596 16.50814,-16.71111 32.82917,-24.5583 10.03907,-4.82683 14.84274,-6.51409 18.55284,-6.51665 2.75347,-0.002 5.00632,-0.28829 5.00632,-0.63648 0,-1.36134 16.41518,-24.9711 22.25569,-32.01008 10.98166,-13.23511 37.55627,-39.6846 43.76389,-43.55783 9.30811,-5.80777 27.22965,-11.39753 36.58151,-11.40985 4.27649,-0.006 9.5773,0.57589 11.77959,1.29226 6.16877,2.00664 22.54488,13.0474 33.61759,22.66493 15.53074,13.48971 17.90955,14.95388 26.66475,16.41208 7.22678,1.20365 8.68422,1.0676 18.7739,-1.75268 15.64912,-4.37426 27.3696,-5.50064 69.2478,-6.65498 20.40813,-0.56253 40.81626,-1.41475 45.3514,-1.89381 17.58128,-1.85716 35.15386,2.026 48.88528,10.8026 10.52868,6.72956 21.20795,18.11771 26.80966,28.58935 5.2184,9.7551 6.21215,14.58849 3.22827,15.70184 -3.17573,1.18493 -4.64974,-0.33373 -9.15582,-9.43308 -7.54393,-15.23384 -22.42727,-28.75525 -37.81249,-34.35237 -9.63384,-3.50477 -23.48621,-5.00936 -32.57316,-3.53796 -4.1951,0.67927 -24.05997,1.66953 -44.14416,2.20057 -40.11371,1.06063 -56.09676,2.46446 -66.07923,5.80394 -9.4935,3.17589 -16.7736,3.8362 -24.71749,2.24187 -9.91032,-1.98897 -14.78314,-4.7355 -25.18851,-14.19731 -10.61117,-9.64894 -27.37463,-21.70017 -33.83786,-24.32597 -9.5768,-3.89076 -32.49008,1.12916 -44.8313,9.82179 -2.56545,1.807 -12.1952,11.1444 -21.39941,20.74977 -36.99624,38.60865 -54.28765,70.5071 -54.28765,100.14753 0,4.63259 1.3281,14.91297 2.95134,22.84529 4.57332,22.34848 5.66881,35.56378 4.94388,59.63923 -0.67342,22.36417 -3.16872,40.19525 -7.82919,55.94616 -3.18419,10.76152 -5.94397,13.49428 -9.46349,9.37083 z m -4.54991,-23.86313 c -2.8152,-3.29827 -6.02739,-11.93242 -6.04765,-16.25565 -0.0368,-7.86295 7.0644,-16.10379 13.15365,-15.26453 4.45556,0.61409 4.08304,4.6818 -0.75753,8.27176 -4.92499,3.65255 -5.37733,7.08961 -1.82476,13.86502 2.70549,5.15988 2.94349,7.56083 0.94236,9.50659 -1.84085,1.78994 -3.87222,1.74416 -5.46607,-0.12319 z m -45.74588,-4.91178 c -0.43166,-1.09372 0.12148,-6.2284 1.22915,-11.41041 1.10768,-5.182 2.7977,-17.59529 3.75559,-27.58511 2.05725,-21.45498 3.12891,-27.15197 7.83368,-41.64344 4.91968,-15.15356 9.53436,-23.06453 17.78848,-30.495 10.39042,-9.35359 15.67675,-12.5291 17.8875,-10.7451 3.30869,2.67001 1.81393,5.44506 -6.41522,11.90999 -4.50472,3.53896 -9.52309,8.13341 -11.15195,10.20987 -7.3185,9.32962 -14.0522,30.49698 -16.10247,50.61802 -2.22647,21.85005 -5.60264,43.98995 -7.20562,47.25211 -1.82491,3.71383 -6.44676,4.85975 -7.61914,1.88907 z m 472.61246,0.28335 c -3.06433,-2.17872 -1.81545,-5.3582 3.646,-9.28219 30.29939,-21.76974 35.8464,-24.90839 48.64922,-27.52706 10.1426,-2.07453 12.31353,-3.0771 17.90112,-8.26696 4.87048,-4.52377 9.61265,-4.88815 10.21503,-0.78489 0.54073,3.68337 -10.23242,12.56412 -17.82296,14.69221 -3.35016,0.93925 -9.80177,2.74163 -14.33691,4.00526 -6.04451,1.6842 -10.60316,4.02978 -17.07673,8.78655 -7.37901,5.42208 -22.68623,15.91052 -27.76646,19.02548 -0.73722,0.45202 -2.27096,0.16025 -3.40831,-0.6484 z m 170.9555,0.781 c -1.6915,-1.6447 -0.78263,-6.10866 1.24374,-6.10866 1.66785,0 1.563,-0.31739 -0.58898,-1.783 -1.43991,-0.98066 -2.61803,-2.47021 -2.61803,-3.3101 0,-0.8399 2.84796,-4.34085 6.32879,-7.7799 15.06082,-14.88006 11.04667,-26.35201 -13.28213,-37.95861 -13.57675,-6.47709 -18.64574,-11.48835 -21.4449,-21.20066 -1.2966,-4.49884 -1.22507,-5.1872 0.67977,-6.54152 3.05669,-2.17327 5.83851,-0.29755 7.4854,5.04724 2.23105,7.24055 5.47702,10.10305 18.21973,16.06733 13.01589,6.09213 19.81542,11.65189 23.34593,19.08921 4.83631,10.1881 1.27264,22.11363 -9.54943,31.95638 -6.48889,5.9017 -5.24916,7.05464 2.05423,1.91045 6.04982,-4.26124 10.34556,-9.7317 12.7151,-16.19219 3.81205,-10.39353 -0.54404,-19.97 -14.30971,-31.45854 -13.5577,-11.31496 -26.94911,-24.89776 -29.32123,-29.74029 -3.10877,-6.34639 -3.52033,-17.9369 -0.89474,-25.19822 1.73856,-4.80815 2.54319,-5.72686 5.01565,-5.72686 3.27048,0 3.27046,-4.1e-4 1.68487,15.71103 -0.69816,6.9181 -0.47724,8.18778 2.19225,12.5991 1.63277,2.69814 7.39178,8.99758 12.7978,13.99876 5.40603,5.00119 13.48305,12.47476 17.94892,16.60791 10.08536,9.33399 13.87744,16.59681 13.82878,26.48568 -0.0442,8.9766 -3.81626,17.05018 -11.42086,24.44442 -7.80801,7.59201 -18.94023,12.16405 -22.11095,9.08104 z M 682.76267,441.74242 c -2.22113,-4.03541 9.85221,-16.3227 21.8947,-22.28272 2.03871,-1.00898 12.11025,-5.12836 22.38121,-9.15416 21.52472,-8.43686 38.90749,-16.5138 44.55637,-20.70323 2.16141,-1.60297 8.51895,-8.88504 14.12786,-16.18234 10.20462,-13.27641 12.43486,-14.8535 15.12672,-10.69673 0.94855,1.46475 -0.50908,4.24993 -6.8935,13.17179 -4.45301,6.22285 -10.64159,13.73446 -13.75239,16.69247 -6.63245,6.30666 -25.42627,15.62037 -51.57099,25.55718 -19.91595,7.56943 -27.8285,11.97115 -35.88345,19.96178 -6.34495,6.2943 -8.1597,6.95502 -9.98653,3.63596 z m 202.77405,-20.97368 c -0.77746,-0.75594 -1.41355,-3.34929 -1.41355,-5.763 0,-2.4137 -1.09564,-7.5509 -2.43474,-11.41602 -2.40294,-6.93568 -8.55619,-16.9531 -10.41355,-16.9531 -2.12223,0 -12.15458,-9.74623 -14.58629,-14.17032 -2.2841,-4.15552 -2.60713,-6.5322 -2.66648,-19.61819 -0.0744,-16.41117 -0.40565,-17.48324 -7.81642,-25.30059 -5.18583,-5.47034 -5.78882,-9.94376 -1.42207,-10.55003 3.58555,-0.4978 13.88054,10.8115 16.30637,17.91293 1.37741,4.03227 1.81107,8.85562 1.57164,17.48016 -0.41183,14.83341 1.07493,18.21613 11.5111,26.19073 4.09948,3.13254 8.80804,7.94277 10.46347,10.6894 8.42092,13.97173 10.49646,32.87249 3.60982,32.87249 -0.71267,0 -1.93185,-0.6185 -2.7093,-1.37446 z m -66.07791,-4.03175 c -9.41797,-5.41255 -11.2489,-8.95638 -10.42341,-20.17472 0.66338,-9.01511 2.65686,-12.06405 6.55984,-10.03303 2.1972,1.14338 2.36104,1.9967 1.74815,9.10508 -0.37926,4.39858 -0.1641,8.73336 0.48987,9.86964 0.64139,1.11438 4.28973,3.639 8.10744,5.61023 5.63578,2.90999 6.94128,4.12262 6.94128,6.44752 0,4.50651 -4.64307,4.22125 -13.42317,-0.82472 z M 168.19228,390.61356 c -6.32701,-1.6834 -23.91778,-9.93083 -27.65535,-12.9662 -2.60227,-2.11336 -2.66574,-5.747 -0.11697,-6.69798 1.18262,-0.44127 7.06667,1.79634 15.01896,5.71146 7.19101,3.54032 15.45994,6.78844 18.37539,7.21803 7.34701,1.08257 9.63734,2.42987 9.20066,5.41233 -0.46611,3.18356 -5.97891,3.67537 -14.82263,1.32236 z m 514.10735,0.98634 c -1.74894,-1.70054 -0.5566,-5.04177 3.67597,-10.30095 8.19115,-10.17794 18.745,-24.94349 22.59441,-31.6111 6.1153,-10.59238 7.31871,-15.87254 8.12776,-35.66166 0.63459,-15.52201 1.04484,-18.38893 2.78361,-19.45193 1.58041,-0.96619 2.50818,-0.78913 4.12285,0.78681 1.80374,1.76048 2.06624,4.14184 1.95478,17.73387 -0.20209,24.64438 -3.88586,34.44327 -22.43163,59.66841 -13.01934,17.70834 -17.66604,21.9108 -20.82775,18.83655 z M 201.86986,365.73356 c -1.01651,-1.77453 -1.48797,-8.64101 -1.5139,-22.04845 -0.0336,-17.37453 0.25726,-20.33474 2.70089,-27.48895 4.08961,-11.97319 14.21882,-27.94653 24.09576,-37.99797 l 4.6991,-4.78212 -5.13535,-1.34456 c -14.09897,-3.69143 -27.32053,-13.6452 -31.18118,-23.47454 -2.55617,-6.50807 -1.78034,-15.27245 2.02988,-22.93125 3.44542,-6.92549 6.0561,-8.6872 8.84912,-5.97144 1.90432,1.85165 1.83174,2.33876 -1.2969,8.70355 -2.12833,4.32981 -3.289,8.51176 -3.24391,11.68804 0.13905,9.79689 10.77469,19.55016 26.18502,24.01261 4.45106,1.28891 8.37033,2.78008 8.70952,3.31372 0.33919,0.53363 4.99875,-1.16791 10.35456,-3.78122 12.45975,-6.07959 18.88924,-7.46746 38.64126,-8.34112 19.65903,-0.86955 22.62764,-0.33751 22.11757,3.96391 l -0.36877,3.10983 -18.25835,0.6888 c -20.44935,0.77147 -27.89566,2.38081 -40.34789,8.72024 -17.25079,8.78235 -35.88023,34.30157 -39.83211,54.56334 -1.31145,6.72396 -1.30147,24.01961 0.019,32.81168 0.5871,3.90928 0.49974,6.84279 -0.23022,7.73127 -1.85173,2.25379 -5.37659,1.67646 -6.99304,-1.14537 z m 539.32769,0.66812 c -2.02474,-1.96873 -0.0366,-5.18609 9.35788,-15.14401 17.83353,-18.903 22.14106,-27.53107 25.79575,-51.66944 3.48655,-23.0277 5.42463,-27.85685 10.43031,-25.98913 2.48719,0.92802 2.43474,3.99003 -0.31372,18.31726 -1.23243,6.42437 -2.82946,15.46554 -3.54898,20.09147 -2.4184,15.54867 -10.11679,28.56172 -27.37953,46.28124 -8.02685,8.23924 -11.93683,10.45098 -14.34171,8.11261 z M 129.6353,355.70285 c -1.95542,-3.07639 2.6889,-15.66357 7.26359,-19.68602 6.91566,-6.08085 21.73632,-8.37087 34.55945,-5.33998 2.91545,0.68911 10.07154,1.85287 15.90244,2.58613 9.53626,1.19924 10.63929,1.58735 10.97654,3.86219 0.25993,1.75328 -0.47484,2.90546 -2.39558,3.75639 -2.73856,1.21325 -5.79542,0.86772 -31.55115,-3.56634 -13.96114,-2.40352 -23.63693,2.45473 -26.44998,13.28066 -1.24246,4.78151 -1.95716,5.74445 -4.48322,6.04033 -1.65281,0.19359 -3.37276,-0.22642 -3.82209,-0.93336 z m 553.29257,-7.09263 c -1.98709,-1.93212 -1.79803,-2.8651 1.41965,-7.00593 4.67156,-6.01182 12.14686,-21.47269 14.22304,-29.41694 4.58052,-17.52683 8.56657,-24.73162 13.18855,-23.83825 2.85448,0.55173 2.6569,5.45939 -0.52167,12.95719 -1.33529,3.14978 -4.0862,10.88106 -6.11312,17.18061 -4.88732,15.18954 -14.87874,31.49777 -19.29745,31.49777 -0.817,0 -2.12155,-0.61851 -2.899,-1.37445 z m 43.82015,-9.44864 c -2.02711,-1.44128 -2.02869,-1.80134 -0.0381,-8.79798 4.91973,-17.29218 14.22179,-32.6983 38.98302,-64.56388 20.71738,-26.66145 25.93502,-37.45173 27.46423,-56.79684 l 0.85212,-10.7802 h 3.53388 c 3.51894,0 3.53537,0.0308 3.88791,7.28375 0.98621,20.28941 -7.70109,39.07096 -32.12346,69.44947 -13.56658,16.87522 -24.43146,33.4089 -29.82428,45.38523 -2.72853,6.05948 -4.96095,11.89182 -4.96095,12.96075 0,5.11947 -4.27919,8.34477 -7.77442,5.8597 z m 65.58378,-18.86256 c -1.41247,-0.88277 -1.46345,-2.55668 -0.32271,-10.59326 0.74517,-5.24967 1.63228,-15.93442 1.9714,-23.74389 0.64427,-14.83735 1.6036,-17.65279 5.81557,-17.06764 2.1531,0.29911 2.50297,1.24506 2.81247,7.60393 0.49099,10.08793 -1.64166,34.17792 -3.51303,39.68235 -1.58403,4.65923 -3.76937,5.98992 -6.7637,4.11851 z m -119.06528,-3.53399 c -1.07676,-1.95626 -0.46317,-3.12592 4.16172,-7.93354 5.74229,-5.96915 9.2058,-13.20374 10.57668,-22.09252 0.90695,-5.88065 3.85788,-8.05743 7.23192,-5.33468 1.414,1.14105 1.65665,2.74644 1.06765,7.06366 -1.34017,9.82323 -5.22466,17.89879 -11.77061,24.47016 -6.52787,6.55321 -9.25665,7.48004 -11.26736,3.82692 z m -449.74243,-0.22527 c -2.14979,-2.09033 -1.7132,-4.38588 2.0259,-10.65196 12.13622,-20.33829 30.40431,-29.52755 60.75929,-30.56334 9.99184,-0.34094 10.62184,-0.22423 10.95297,2.02923 0.55132,3.75207 -2.04406,4.89686 -13.97504,6.1642 -23.15553,2.45964 -31.75793,5.83708 -42.01058,16.494 -3.82054,3.9712 -8.10833,9.6238 -9.52842,12.56134 -2.6286,5.43741 -5.35769,6.75366 -8.22412,3.96653 z m -48.61515,-22.39205 c -5.17273,-2.54756 -6.3955,-3.69724 -6.3955,-6.01321 0,-3.81961 3.68148,-4.28448 9.58131,-1.20982 2.48561,1.29535 5.48112,2.35519 6.65667,2.35519 3.51671,0 8.88064,-3.23235 16.15587,-9.73566 8.30718,-7.42578 13.40595,-10.16206 17.20726,-9.23437 4.50416,1.09919 3.53401,4.75932 -2.18828,8.25594 -2.75349,1.68252 -7.92178,5.59663 -11.4851,8.69802 -12.31766,10.72089 -18.71401,12.21187 -29.53223,6.88391 z m 560.80218,-5.42797 c -2.57005,-3.01106 -0.23502,-9.13359 9.3705,-24.56986 12.52528,-20.12836 15.54328,-27.70183 16.26263,-40.81005 1.04659,-19.07081 -5.01361,-38.54138 -16.23196,-52.15101 -8.79324,-10.66763 -17.10342,-16.76563 -32.38207,-23.76194 -7.77452,-3.56008 -25.26721,-11.96526 -38.87263,-18.67821 -27.32334,-13.48137 -37.50446,-17.24728 -74.80036,-27.66795 l -25.3261,-7.076268 -17.66938,0.003 c -16.88806,0.003 -18.11212,0.16224 -27.68202,3.5972 -5.50696,1.97662 -14.2533,5.419558 -19.43632,7.650968 -5.26573,2.26705 -16.66065,5.62006 -25.82581,7.59937 -9.02117,1.94824 -21.74312,5.6468 -28.27101,8.21905 -50.90333,20.0579 -102.61415,31.38804 -125.27978,27.44951 -13.43395,-2.33436 -20.03097,-7.40887 -28.07159,-21.59296 -2.70847,-4.77788 -3.13754,-6.41677 -2.09902,-8.01761 2.49502,-3.846 5.48064,-2.32762 9.55645,4.86009 7.58348,13.3735 15.47283,17.75329 31.9791,17.75329 22.83031,0 67.23695,-10.77054 104.99089,-25.46485 17.49562,-6.80953 17.66002,-6.85936 36.72504,-11.13345 9.5677,-2.14493 19.77883,-5.438018 28.4208,-9.165688 18.70107,-8.06662 31.72672,-10.72121 49.11613,-10.00968 12.0124,0.49151 16.41463,1.33705 38.87262,7.46626 37.67758,10.282918 51.05495,15.172888 78.36284,28.644758 13.62114,6.71975 31.85199,15.46631 40.51299,19.43679 14.89824,6.82985 16.32706,7.78705 26.50061,17.75329 14.35449,14.06201 20.99522,26.85232 24.20171,46.61349 3.54885,21.87115 -0.51575,38.28857 -14.82328,59.87294 -6.22248,9.38726 -11.04395,18.46684 -11.04395,20.7975 0,0.94372 -1.02531,2.2494 -2.27847,2.90152 -2.92453,1.52186 -3.0473,1.50851 -4.77856,-0.51983 z m -9.1836,-18.73627 c -0.83387,-0.51443 -2.76974,-6.32984 -4.30193,-12.9231 -8.43096,-36.27988 -24.20899,-64.60711 -44.19627,-79.34816 -9.56218,-7.05232 -14.46727,-9.57634 -29.17688,-15.01368 -23.1183,-8.54558 -29.28045,-13.40412 -43.3083,-34.1465 -8.75036,-12.93881 -10.64994,-18.17643 -7.07589,-19.50998 3.12696,-1.16673 4.57669,0.25096 12.18382,11.91436 8.73649,13.39498 17.36628,22.96063 24.25626,26.88674 2.70084,1.539 10.71401,4.89017 17.80708,7.44704 16.24025,5.85419 26.79136,11.92455 36.99621,21.28499 17.69966,16.23508 30.97691,41.03027 39.52155,73.80629 3.43648,13.18177 3.74323,18.8798 1.07007,19.8772 -2.24928,0.83926 -1.93172,0.86241 -3.77572,-0.2752 z m -53.52673,-7.97721 c -9.34396,-9.7131 -10.57933,-13.22936 -11.54419,-32.85849 -0.96162,-19.56298 -3.01546,-28.61201 -9.02297,-39.75447 -5.28447,-9.80134 -13.49816,-17.25498 -24.42291,-22.16291 -4.73923,-2.12908 -13.32507,-6.51788 -19.07963,-9.75288 -15.77452,-8.86787 -21.34605,-11.48699 -31.66608,-14.88598 -8.16989,-2.69081 -9.47198,-3.48841 -9.78665,-5.99477 -0.25273,-2.01289 0.30435,-3.09698 1.83398,-3.56903 4.2482,-1.31103 28.90054,8.61717 43.21425,17.40362 2.63396,1.61685 10.98792,5.96949 18.56437,9.67256 16.20806,7.92186 23.31494,14.53264 29.69208,27.61951 5.85127,12.00768 8.02625,22.01926 8.87489,40.85166 0.82995,18.41787 1.25084,19.68884 9.14935,27.62869 3.81384,3.83382 5.15706,6.04513 4.87016,8.01761 -0.70068,4.81715 -4.71233,3.98484 -10.67665,-2.21512 z M 538.98136,244.1354 c -6.80271,-2.08011 -17.13931,-6.04545 -22.9702,-8.81186 -9.134,-4.33354 -11.83614,-5.08502 -19.51933,-5.4284 -8.07374,-0.36084 -10.44815,0.10366 -25.08918,4.90828 -8.89431,2.91878 -18.13337,5.41739 -20.53126,5.55247 -3.92104,0.2209 -4.39627,-0.0613 -4.72252,-2.80359 -0.3349,-2.81512 0.16247,-3.19559 6.47877,-4.95584 3.76283,-1.04864 11.87729,-3.73214 18.03212,-5.96333 19.57529,-7.09621 32.54233,-6.54553 49.31995,2.09453 6.19007,3.18772 30.29371,11.30116 33.57385,11.30116 2.98695,0 6.8369,3.87253 5.98812,6.02325 -1.15375,2.92344 -6.30045,2.44367 -20.56032,-1.91667 z m -302.34425,1.6669 c -5.45065,-1.26233 -13.79775,-6.31984 -17.52581,-10.61886 -7.5914,-8.75404 -7.91824,-15.49928 -1.37467,-28.37045 3.15014,-6.19628 4.27884,-7.44493 6.72983,-7.44493 4.10965,0 4.36882,3.62821 0.75457,10.56331 -4.54303,8.71726 -4.93854,12.78546 -1.6976,17.46167 7.7582,11.19393 18.86939,13.78561 37.13897,8.66261 13.31517,-3.73372 18.57913,-3.58938 18.57913,0.50946 0,2.04935 -0.81674,3.05632 -2.9449,3.63076 -25.65208,6.92418 -30.81705,7.65431 -39.65952,5.60643 z m 349.94963,-11.71794 c -5.74932,-5.29413 -12.24655,-13.00531 -17.67028,-20.97182 -4.71773,-6.9295 -9.83512,-13.92944 -11.37199,-15.55539 -9.13703,-9.66668 -25.21418,-19.25289 -40.35535,-24.06247 -7.79459,-2.47594 -10.1146,-2.62311 -42.4065,-2.69009 -33.35162,-0.0691 -34.46772,-0.14635 -47.11834,-3.25751 -14.56207,-3.58125 -22.38121,-7.23887 -22.38121,-10.46945 0,-3.96947 3.34871,-4.70281 9.583,-2.09861 3.15175,1.31656 10.23615,3.5957 15.74311,5.06474 9.42307,2.5137 12.09353,2.67466 45.3514,2.73339 33.6669,0.0595 35.72884,0.18763 43.58446,2.70925 24.63311,7.90714 44.05718,22.87427 57.61445,44.39456 4.63011,7.34965 9.48357,13.09702 16.13024,19.10109 10.10092,9.12437 11.50455,12.44792 5.54094,13.11993 -2.53687,0.28586 -4.92423,-1.27744 -12.24393,-8.01762 z m 189.15056,6.50111 c -1.19415,-1.39906 -1.10804,-3.55667 0.44566,-11.16739 2.3822,-11.66905 2.42295,-20.12942 0.16223,-33.68271 -3.11786,-18.69199 -10.24821,-36.91374 -17.55912,-44.87272 -5.00978,-5.45386 -13.44777,-8.60479 -24.8526,-9.28051 -9.8667,-0.58457 -10.62771,-0.80664 -10.9778,-3.20338 -0.278,-1.90327 0.43358,-2.87458 2.72709,-3.72246 5.21591,-1.92822 16.47943,-1.33551 23.55804,1.23968 18.21284,6.62579 28.16111,22.49867 34.67681,55.3283 5.49693,27.69651 0.26654,59.25747 -8.18031,49.36119 z m -222.20722,-9.45083 c -0.74455,-0.46283 -3.70565,-3.934 -6.58024,-7.71374 -7.88031,-10.36163 -12.45192,-14.25661 -21.51501,-18.33058 -15.56856,-6.99829 -41.35509,-10.593 -61.41527,-8.56147 -12.52623,1.26855 -29.38471,6.59108 -37.5278,11.84823 -13.22261,8.53647 -19.59045,9.55279 -31.22133,4.983 -5.40913,-2.12524 -6.54042,-3.06601 -6.85215,-5.69819 -0.52373,-4.42217 2.20452,-5.04049 9.40396,-2.1313 8.5529,3.4561 12.31783,3.12466 19.74416,-1.7382 12.73988,-8.34219 30.35807,-14.28692 47.3059,-15.96195 11.25876,-1.11275 38.55418,1.48339 50.25245,4.77964 17.55528,4.9466 27.91038,11.36118 36.36379,22.52594 8.08792,10.68204 9.08979,12.89261 6.83624,15.08381 -2.05238,1.99561 -2.8203,2.14213 -4.7947,0.91481 z m -246.81276,-8.1962 c -15.68336,-4.11425 -26.90115,-13.16575 -33.48284,-27.01689 -4.97584,-10.47163 -11.04243,-32.97156 -11.39665,-42.26816 l -0.26568,-6.97251 h 3.45613 3.45613 l 2.57747,12.59911 c 5.02424,24.5593 9.38843,35.43894 17.6683,44.04594 9.48417,9.85887 23.52742,14.59121 39.87623,13.43759 12.107,-0.85429 20.99883,-3.86632 31.35144,-10.62004 6.80838,-4.44157 8.50467,-5.10774 9.97815,-3.91871 4.65487,3.75634 0.0371,8.90621 -14.41608,16.07719 -13.30934,6.60347 -33.86143,8.55601 -48.8026,4.63648 z m 12.5748,-26.46318 c -18.92175,-6.02081 -22.25135,-9.43857 -23.26976,-23.8858 -0.78187,-11.09168 -2.51194,-14.41341 -11.51547,-22.10968 -5.6276,-4.81051 -7.05253,-6.69111 -6.78367,-8.95308 0.6383,-5.37021 4.45084,-4.08264 13.68721,4.6224 9.92576,9.35478 11.65694,12.65344 12.71433,24.22635 0.4209,4.60674 1.27094,9.3314 1.88897,10.49926 1.47107,2.77982 14.71448,8.57037 23.85309,10.42952 6.89267,1.40224 8.65329,1.31769 22.5816,-1.08446 4.32789,-0.7464 4.97499,-0.56778 5.67134,1.56554 1.12945,3.46017 0.10059,4.44446 -6.69819,6.40762 -9.44301,2.72669 -19.92276,2.16644 -32.12945,-1.71767 z m 19.93774,-18.08988 c -3.28754,-1.10507 -9.39764,-4.38238 -13.57801,-7.28291 -9.18615,-6.37379 -30.86374,-25.88258 -35.94572,-32.34945 -5.9062,-7.51571 -6.30946,-13.26154 -0.93072,-13.26154 2.11011,0 3.24553,1.02966 4.59286,4.16507 2.84046,6.6101 33.97243,34.29456 44.35923,39.44693 7.27114,3.60685 13.55401,3.90938 23.89584,1.15062 10.31902,-2.75268 13.6218,-2.37365 13.6218,1.56323 0,2.97628 -2.20447,4.08337 -13.71655,6.88847 -9.2766,2.26039 -14.85966,2.18016 -22.29873,-0.32042 z m -55.35473,370.18288 c -0.34808,0.0507 -0.71123,0.15262 -1.09973,0.29753 -2.90674,1.08458 -2.03735,7.17571 1.91418,13.42011 5.97089,9.43555 5.7659,12.13435 -1.90498,25.08413 -7.79014,13.15127 -10.62474,20.61658 -12.31564,32.43733 -3.162,22.10553 -0.31193,44.62406 10.09316,79.76676 0.007,0.0257 -0.01,0.0571 -0.0118,0.085 0.0388,0.12941 0.0787,0.2589 0.092,0.39372 0.004,0.0252 0.0106,0.0491 0.0161,0.0738 0.19512,0.26293 0.33292,0.56395 0.46244,0.86127 0.0741,0.206 0.14619,0.40892 0.22547,0.61295 0.0243,0.0782 0.11709,0.20319 0.19786,0.37135 0.0855,0.18649 0.12776,0.38478 0.15415,0.58612 0.014,0.12318 0.0195,0.24748 0.023,0.37134 -9.6e-4,0.0205 7.9e-4,0.0582 0.002,0.0939 0.053,0.13527 0.0857,0.2796 0.11274,0.42057 0.0191,0.19371 0.0316,0.21716 0.069,0.35793 0.0349,0.18499 0.0857,0.36384 0.13344,0.54583 0.0741,0.26867 0.10625,0.54453 0.12885,0.82101 0.0174,0.22367 0.0228,0.44917 0.0276,0.67335 0.004,0.18694 0.004,0.37231 0.005,0.55927 0.02,0.19799 -0.0321,0.40878 0.0118,0.604 0.0106,0.0571 0.0135,0.11507 0.023,0.17225 0.0192,0.0564 0.0388,0.11248 0.062,0.16779 0.0377,0.14831 0.0641,0.2968 0.099,0.44517 0.0633,0.23633 0.0911,0.47384 0.0829,0.71809 0.005,0.15391 0.006,0.30806 0.0275,0.46084 0.0221,0.16219 0.0731,0.31942 0.11037,0.47872 0.0251,0.20758 0.0335,0.41282 0.0276,0.6219 9.5e-4,0.14832 0.002,0.29691 0.007,0.44518 0.004,0.10148 0.007,0.20379 0.023,0.30425 0.0198,0.12171 0.0563,0.24017 0.10591,0.35344 0.12244,0.29318 0.22853,0.58866 0.30368,0.89707 h 0.002 c 0.0749,0.3073 0.0743,0.57353 0.023,0.79191 1.18434,3.61089 2.88304,14.34254 6.17739,39.19997 1.92614,14.5335 4.61532,31.67902 5.97721,38.09932 3.00807,14.18078 9.96837,35.17792 15.55965,46.94465 1.81755,3.82507 2.58153,5.58107 2.91499,6.81408 -0.009,-0.0217 -0.016,-0.043 -0.023,-0.0648 -0.009,-0.03 -0.0148,-0.0599 -0.0253,-0.0895 -0.0106,-0.0295 -0.0193,-0.0601 -0.0299,-0.0895 -0.0106,-0.0272 -0.0217,-0.0552 -0.0299,-0.0829 -0.007,-0.022 -0.0125,-0.0434 -0.0207,-0.0648 -0.007,-0.0202 -0.0125,-0.0402 -0.0207,-0.0604 -0.007,-0.0174 -0.0118,-0.0365 -0.0184,-0.0537 -0.007,-0.0159 -0.0148,-0.0317 -0.023,-0.047 -0.009,-0.017 -0.017,-0.0335 -0.0275,-0.0493 -0.0118,-0.0196 -0.0216,-0.0402 -0.0321,-0.0604 -0.01,-0.0183 -0.0193,-0.0358 -0.0299,-0.0537 -0.01,-0.0174 -0.0192,-0.0335 -0.0323,-0.0493 v -0.002 c -0.0411,-0.0513 -0.0205,-0.0939 0.0161,-0.0984 0.022,-0.002 0.0494,0.01 0.0736,0.0404 0.0145,0.0184 0.0249,0.0379 0.0367,0.0582 0.0106,0.0185 0.0216,0.037 0.0321,0.0559 0.01,0.0191 0.0193,0.0397 0.0299,0.0582 0.0118,0.0182 0.0227,0.0364 0.0321,0.0559 0.01,0.0166 0.0159,0.0342 0.023,0.0514 0.009,0.0187 0.0137,0.0369 0.0207,0.0559 0.009,0.0201 0.0159,0.0423 0.023,0.0626 0.01,0.023 0.0137,0.0479 0.0207,0.0716 0.009,0.0261 0.0181,0.0504 0.0276,0.076 0.0106,0.0299 0.0216,0.0595 0.0321,0.0895 0.0118,0.0313 0.0181,0.0643 0.0276,0.0962 0.009,0.0268 0.0181,0.0543 0.0275,0.0806 0.009,0.0264 0.0221,0.049 0.0345,0.0738 0.0154,0.0301 0.0263,0.0628 0.0391,0.0939 0.0106,0.0252 0.0222,0.0494 0.0345,0.0737 0.0159,0.0319 0.0339,0.0647 0.0506,0.0962 0.0194,0.0367 0.0408,0.0727 0.0598,0.10961 0.0231,0.0473 0.047,0.092 0.0712,0.13869 0.0257,0.0499 0.0494,0.1016 0.0736,0.15213 0.0248,0.0485 0.044,0.0996 0.0644,0.14988 0.0165,0.043 0.0362,0.0853 0.0552,0.12752 0.0166,0.0364 0.0292,0.0724 0.0437,0.1096 0.0149,0.0402 0.029,0.0806 0.0437,0.12081 0.0235,0.0622 0.0447,0.12607 0.069,0.18792 0.0243,0.0584 0.0458,0.11784 0.0691,0.17672 0.0173,0.0396 0.0306,0.0814 0.0483,0.1208 0.0262,0.0563 0.0536,0.11064 0.0829,0.16554 0.0249,0.045 0.0489,0.0901 0.0713,0.13646 0.0175,0.0359 0.0332,0.0738 0.0506,0.10961 0.0409,0.0864 0.0943,0.16722 0.14494,0.2483 0.0589,0.0958 0.12056,0.18837 0.17945,0.28412 0.0315,0.0531 0.0619,0.10698 0.092,0.16106 0.0238,0.0438 0.0473,0.0872 0.069,0.132 0.0504,0.10777 0.11403,0.21079 0.17486,0.31318 0.0654,0.10595 0.12451,0.21425 0.18635,0.32215 0.0398,0.0679 0.078,0.13541 0.11732,0.20356 0.0358,0.0615 0.0695,0.12577 0.10814,0.18568 0.0427,0.0624 0.0863,0.12537 0.12884,0.18791 0.0717,0.10594 0.14543,0.21125 0.22317,0.31318 0.0837,0.10767 0.17008,0.21114 0.25537,0.31766 0.0429,0.0543 0.0871,0.10824 0.12884,0.16331 0.0261,0.0361 0.0514,0.0718 0.0783,0.10732 0.0289,0.0394 0.0564,0.0813 0.0851,0.1208 0.0311,0.0416 0.0638,0.0806 0.0966,0.12081 0.0282,0.0324 0.0522,0.0688 0.0782,0.10286 0.0201,0.0252 0.0419,0.0488 0.062,0.0738 0.0182,0.0226 0.034,0.047 0.0528,0.0693 0.0217,0.024 0.0414,0.0497 0.0598,0.0761 0.0217,0.0322 0.0428,0.064 0.0644,0.0962 0.0213,0.033 0.0434,0.0666 0.0667,0.0984 0.0245,0.0328 0.0454,0.0659 0.0666,0.10068 0.0169,0.0279 0.0359,0.0571 0.0529,0.085 0.0146,0.0266 0.0319,0.0506 0.0483,0.0761 0.0136,0.0246 0.0318,0.0465 0.0483,0.0693 0.0145,0.02 0.0285,0.0393 0.0413,0.0604 9.6e-4,0.002 0.004,0.005 0.005,0.007 v -0.0134 l 0.18176,0.25501 c 0.002,0.004 0.005,0.006 0.007,0.01 l 0.01,0.0134 4.62671,6.49864 c 6.1902,8.69429 14.05098,16.59493 28.74724,28.89384 6.47868,5.42183 17.37818,15.3128 24.22178,21.97909 14.48038,14.10525 23.10018,19.07257 44.45873,25.61879 18.60056,5.70082 20.78964,6.01429 22.76771,3.26833 1.54868,-2.14978 2.02412,-2.17497 11.62544,-0.6286 11.53167,1.85716 23.33497,1.2091 36.19001,-1.98429 5.6886,-1.41313 18.77537,-7.23709 39.46161,-17.56313 17.02251,-8.4972 37.26915,-18.07322 44.99019,-21.28112 19.69419,-8.18233 36.36056,-16.52748 46.21186,-23.13789 20.60678,-13.82762 50.78823,-50.01431 68.43661,-82.0508 3.23083,-5.86471 4.80427,-8.31008 5.67814,-8.72899 0.13432,-0.23597 0.26752,-0.47171 0.41183,-0.70244 0.13202,-0.20984 0.25319,-0.42646 0.37501,-0.64204 0.0997,-0.17993 0.18984,-0.3645 0.26688,-0.55479 0.0955,-0.21077 0.17827,-0.42799 0.25307,-0.64651 0.0975,-0.27492 0.21448,-0.54275 0.3152,-0.81652 0.13194,-0.34279 0.25307,-0.68965 0.36121,-1.04023 0.11626,-0.38771 0.22353,-0.77674 0.33591,-1.16551 0.15025,-0.54364 0.31273,-1.08387 0.48313,-1.62187 0.22124,-0.68532 0.45812,-1.36602 0.71323,-2.0402 0.28062,-0.72606 0.57401,-1.4466 0.89036,-2.15875 0.31696,-0.68109 0.63951,-1.36026 1.01462,-2.01336 0.39535,-0.67966 0.82857,-1.33652 1.28379,-1.97979 0.43356,-0.61178 0.86605,-1.22799 1.23547,-1.87913 0.2878,-0.51546 0.53976,-1.04847 0.74774,-1.5995 0.20215,-0.5559 0.37878,-1.11949 0.59357,-1.67108 0.19441,-0.51321 0.39334,-1.02489 0.59128,-1.53686 0.16468,-0.42324 0.31267,-0.85197 0.45785,-1.28183 0.11037,-0.33881 0.20623,-0.68304 0.3152,-1.02234 0.12422,-0.37462 0.25456,-0.74811 0.39801,-1.11629 0.15877,-0.4226 0.31712,-0.84354 0.44864,-1.27512 0.11957,-0.37096 0.24014,-0.74133 0.36121,-1.11181 0.0871,-0.26665 0.16283,-0.53695 0.24387,-0.80535 0.0863,-0.2671 0.16648,-0.53737 0.25768,-0.8031 0.007,-0.16121 0.0181,-0.32287 0.0367,-0.48321 0.0251,-0.20518 0.0631,-0.40749 0.10119,-0.61071 0.0351,-0.17879 0.0751,-0.35625 0.12193,-0.53242 0.0392,-0.13736 0.0757,-0.27711 0.10814,-0.41609 0.0381,-0.16269 0.11308,-0.2668 0.19786,-0.31991 0.25751,-1.34247 1.56734,-5.58866 3.54537,-11.26806 5.7468,-16.50047 17.39931,-60.31139 16.58804,-62.36692 -0.36591,-0.92757 -1.94244,-1.68683 -3.50385,-1.68683 -3.68238,0 -4.04826,0.94239 -11.92453,30.60966 -7.41767,27.93948 -16.66165,53.26661 -26.70882,73.18533 -18.95894,37.58639 -52.46681,77.74823 -76.68694,91.91398 -5.6663,3.31409 -20.45077,10.3708 -32.854,15.68178 -12.40321,5.31089 -35.3315,16.0469 -50.95129,23.85821 -15.61989,7.81138 -31.01513,15.0552 -34.21141,16.09787 -9.6757,3.15624 -21.31759,4.08842 -33.92153,2.71355 -12.089,-1.31872 -15.69593,-0.48871 -14.21142,3.27282 0.55805,1.41394 0.26221,1.52125 -1.54377,0.55702 -1.22773,-0.65549 -8.59275,-3.07747 -16.36718,-5.38237 -23.99329,-7.1132 -29.36959,-10.24781 -49.00721,-28.57169 -9.46068,-8.82777 -22.41343,-20.68965 -28.78405,-26.35924 -13.3985,-11.92397 -19.29385,-19.28751 -26.74104,-33.39703 -12.18784,-23.09124 -18.10882,-45.86193 -24.41043,-93.88931 -3.28271,-25.01863 -6.31682,-40.88779 -11.76348,-61.5146 -5.42245,-20.53554 -7.13038,-31.52677 -7.11836,-45.79706 0.017,-20.03973 2.63902,-29.62295 12.65385,-46.25563 8.68945,-14.43159 8.97402,-18.89797 2.06143,-32.2785 -3.61017,-6.98806 -5.35693,-9.60587 -7.31623,-9.98847 -0.32655,-0.0637 -0.65961,-0.0642 -1.00771,-0.0134 z" /></g></svg>
